<svg width="30" height="31" viewBox="0 0 30 31" fill="none" xmlns="http://www.w3.org/2000/svg">
<path d="M0 15.5C0 7.21573 6.71573 0.5 15 0.5C23.2843 0.5 30 7.21573 30 15.5C30 23.7843 23.2843 30.5 15 30.5C6.71573 30.5 0 23.7843 0 15.5Z" fill="#FEDCC1"/>
<path d="M10.6318 19.8389L15.123 15.5146C15.6094 15.0225 15.9873 14.6182 16.2568 14.3018C16.5264 13.9854 16.7314 13.6748 16.8721 13.3701C17.0186 13.0596 17.0918 12.7314 17.0918 12.3857C17.0918 12.0049 16.9951 11.668 16.8018 11.375C16.6084 11.082 16.3447 10.8564 16.0107 10.6982C15.6826 10.5342 15.3105 10.4521 14.8945 10.4521C14.4668 10.4521 14.0918 10.54 13.7695 10.7158C13.4473 10.8857 13.1953 11.1318 13.0137 11.4541C12.8379 11.7705 12.75 12.1426 12.75 12.5703H10.5791C10.5732 11.7793 10.7549 11.085 11.124 10.4873C11.4932 9.88379 12.0088 9.41797 12.6709 9.08984C13.333 8.76172 14.0859 8.59766 14.9297 8.59766C15.7793 8.59766 16.5322 8.75586 17.1885 9.07227C17.8506 9.38867 18.3633 9.8252 18.7266 10.3818C19.0957 10.9385 19.2803 11.5713 19.2803 12.2803C19.2744 12.7725 19.1777 13.2471 18.9902 13.7041C18.8086 14.1611 18.4863 14.668 18.0234 15.2246C17.5664 15.7812 16.9219 16.4521 16.0898 17.2373L13.8223 19.4873V19.584H19.4736V21.5H10.6406L10.6318 19.8389Z" fill="#FFB47F"/>
</svg>
