<svg width="30" height="31" viewBox="0 0 30 31" fill="none" xmlns="http://www.w3.org/2000/svg">
<path d="M0 15.5C0 7.21573 6.71573 0.5 15 0.5C23.2843 0.5 30 7.21573 30 15.5C30 23.7843 23.2843 30.5 15 30.5C6.71573 30.5 0 23.7843 0 15.5Z" fill="#FEDCC1"/>
<path d="M14.9912 21.6758C14.0947 21.6758 13.292 21.5234 12.583 21.2188C11.8799 20.9141 11.3232 20.4863 10.9131 19.9355C10.5088 19.3789 10.2979 18.749 10.2803 18.0459H12.5918C12.6094 18.3857 12.7266 18.6846 12.9434 18.9424C13.1602 19.1943 13.4443 19.3906 13.7959 19.5312C14.1475 19.6719 14.543 19.7422 14.9824 19.7422C15.4512 19.7422 15.8701 19.6631 16.2393 19.5049C16.6084 19.3467 16.8955 19.124 17.1006 18.8369C17.3057 18.5498 17.4053 18.2217 17.3994 17.8525C17.3994 17.4658 17.2969 17.123 17.0918 16.8242C16.8867 16.5254 16.582 16.2939 16.1777 16.1299C15.7793 15.96 15.3076 15.875 14.7627 15.875H13.6289V14.1084H14.7627C15.208 14.1084 15.6064 14.0322 15.958 13.8799C16.3096 13.7217 16.5791 13.502 16.7666 13.2207C16.96 12.9395 17.0566 12.6172 17.0566 12.2539C17.0566 11.9023 16.9717 11.5918 16.8018 11.3223C16.6377 11.0469 16.4004 10.833 16.0898 10.6807C15.7852 10.5283 15.4277 10.4521 15.0176 10.4521C14.6133 10.458 14.2412 10.5312 13.9014 10.6719C13.5615 10.8125 13.2861 11.0146 13.0752 11.2783C12.8643 11.542 12.7529 11.8496 12.7412 12.2012H10.5352C10.5527 11.498 10.7607 10.874 11.1592 10.3291C11.5635 9.77832 12.1025 9.35352 12.7764 9.05469C13.4502 8.75 14.2002 8.59766 15.0264 8.59766C15.8701 8.59766 16.6113 8.75586 17.25 9.07227C17.8945 9.38281 18.3926 9.80762 18.7441 10.3467C19.0957 10.8799 19.2686 11.4717 19.2627 12.1221C19.2686 12.5908 19.1748 13.0156 18.9814 13.3965C18.7939 13.7773 18.5215 14.0938 18.1641 14.3457C17.8066 14.5977 17.3965 14.7734 16.9336 14.873V14.9697C17.5254 15.0518 18.0322 15.2275 18.4541 15.4971C18.8818 15.7607 19.2041 16.1064 19.4209 16.5342C19.6377 16.9561 19.7461 17.4336 19.7461 17.9668C19.7461 18.6699 19.541 19.3027 19.1309 19.8652C18.7266 20.4277 18.1611 20.8701 17.4346 21.1924C16.7139 21.5146 15.8994 21.6758 14.9912 21.6758Z" fill="#FFB47F"/>
</svg>
