<svg width="56" height="56" viewBox="0 0 56 56" fill="none" xmlns="http://www.w3.org/2000/svg">
<path d="M0 28C0 12.536 12.536 0 28 0C43.464 0 56 12.536 56 28C56 43.464 43.464 56 28 56C12.536 56 0 43.464 0 28Z" fill="#DCFCE7"/>
<path d="M30.4962 18C30.9472 18 31.3898 18.122 31.7771 18.353C32.1644 18.5841 32.482 18.9156 32.6962 19.3125L33.3038 20.4375C33.518 20.8344 33.8356 21.1659 34.2229 21.397C34.6102 21.628 35.0528 21.75 35.5038 21.75H38C38.663 21.75 39.2989 22.0134 39.7678 22.4822C40.2366 22.9511 40.5 23.587 40.5 24.25V35.5C40.5 36.163 40.2366 36.7989 39.7678 37.2678C39.2989 37.7366 38.663 38 38 38H18C17.337 38 16.7011 37.7366 16.2322 37.2678C15.7634 36.7989 15.5 36.163 15.5 35.5V24.25C15.5 23.587 15.7634 22.9511 16.2322 22.4822C16.7011 22.0134 17.337 21.75 18 21.75H20.4963C20.9468 21.75 21.3889 21.6283 21.776 21.3977C22.163 21.1671 22.4805 20.8362 22.695 20.44L23.3062 19.31C23.5207 18.9138 23.8382 18.5829 24.2253 18.3523C24.6123 18.1217 25.0545 18 25.505 18H30.4962Z" stroke="#00A63E" stroke-width="2" stroke-linecap="round" stroke-linejoin="round"/>
<path d="M28 33C30.0711 33 31.75 31.3211 31.75 29.25C31.75 27.1789 30.0711 25.5 28 25.5C25.9289 25.5 24.25 27.1789 24.25 29.25C24.25 31.3211 25.9289 33 28 33Z" stroke="#00A63E" stroke-width="2" stroke-linecap="round" stroke-linejoin="round"/>
</svg>
