<svg width="16" height="16" viewBox="0 0 16 16" fill="none" xmlns="http://www.w3.org/2000/svg">
<path d="M2.00016 5.33331H4.00016C4.35378 5.33331 4.69292 5.19284 4.94297 4.94279C5.19302 4.69274 5.3335 4.3536 5.3335 3.99998V1.99998" stroke="white" stroke-width="1.33333" stroke-linecap="round" stroke-linejoin="round"/>
<path d="M10.6667 1.99998V3.99998C10.6667 4.3536 10.8071 4.69274 11.0572 4.94279C11.3072 5.19284 11.6464 5.33331 12 5.33331H14" stroke="white" stroke-width="1.33333" stroke-linecap="round" stroke-linejoin="round"/>
<path d="M5.3335 14V12C5.3335 11.6464 5.19302 11.3072 4.94297 11.0572C4.69292 10.8071 4.35378 10.6667 4.00016 10.6667H2.00016" stroke="white" stroke-width="1.33333" stroke-linecap="round" stroke-linejoin="round"/>
<path d="M14 10.6667H12C11.6464 10.6667 11.3072 10.8071 11.0572 11.0572C10.8071 11.3072 10.6667 11.6464 10.6667 12V14" stroke="white" stroke-width="1.33333" stroke-linecap="round" stroke-linejoin="round"/>
</svg>
